<?xml version="1.0" encoding="UTF-8"?>
<svg version="1.1" xmlns="http://www.w3.org/2000/svg" width="40" height="40" viewBox="0 0 577 552">
<path d="M0 0 C190.41 0 380.82 0 577 0 C577 182.16 577 364.32 577 552 C386.59 552 196.18 552 0 552 C0 369.84 0 187.68 0 0 Z " fill="#9FC44C" transform="translate(0,0)"/>
<path d="M0 0 C2.89747497 -0.00911614 5.79495193 -0.01524357 8.69243566 -0.02081559 C10.72052393 -0.02564502 12.74860272 -0.03405164 14.77667878 -0.04258841 C41.69874539 -0.08351242 64.86808022 4.55459438 85.22118918 23.65372033 C96.2103501 34.77130215 103.87688042 47.81893115 107.56103293 63.02090783 C107.89747824 64.32028283 107.89747824 64.32028283 108.24072043 65.64590783 C110.17314326 74.32857477 109.81545401 83.18300944 109.56103293 92.02090783 C109.54298606 92.97352501 109.52493918 93.9261422 109.50634543 94.90762658 C108.64742461 110.19136481 100.17421444 124.56519987 90.56103293 136.02090783 C89.96290793 136.79950158 89.36478293 137.57809533 88.74853293 138.38028283 C78.40620264 151.06579733 64.14594517 158.8423444 48.56103293 163.02090783 C44.47646535 164.31445647 44.47646535 164.31445647 40.56103293 166.02090783 C40.56103293 165.36090783 40.56103293 164.70090783 40.56103293 164.02090783 C40.00556124 164.18346408 39.45008954 164.34602034 38.87778537 164.51350255 C36.34209013 165.06885975 34.08887448 165.14311352 31.49299399 165.13939232 C29.92722963 165.14076793 29.92722963 165.14076793 28.32983367 165.14217133 C27.16838773 165.13800643 26.00694178 165.13384152 24.81030051 165.1295504 C23.55141957 165.12902106 22.29253863 165.12849171 20.99550978 165.12794632 C17.40361865 165.1261599 13.81176644 165.11780413 10.21988813 165.108432 C6.21420785 165.09897581 2.20852086 165.09505092 -1.79716714 165.09019799 C-9.30047772 165.08014827 -16.8037716 165.0655087 -24.3070701 165.04880089 C-33.64239312 165.0280551 -42.97771658 165.0112987 -52.31305154 164.99692101 C-83.21035161 164.94877634 -114.10754841 164.88348768 -145.0047523 164.79189831 C-148.79719536 164.7806564 -152.58963873 164.76952428 -156.3820823 164.75845665 C-157.51218139 164.75515183 -157.51218139 164.75515183 -158.66511077 164.75178023 C-171.03808027 164.71590232 -183.41104919 164.69128243 -195.78405231 164.67056081 C-208.65394895 164.64877907 -221.52378089 164.61577843 -234.39362242 164.57220627 C-242.25399233 164.54592691 -250.11428252 164.52805856 -257.97469411 164.52156179 C-263.95423222 164.5156716 -269.93360959 164.49405804 -275.91309198 164.46663231 C-278.35070538 164.45787076 -280.78834304 164.45412559 -283.22597154 164.45589966 C-306.70798532 164.46759518 -306.70798532 164.46759518 -317.43896707 161.02090783 C-318.65713113 160.65610314 -319.87529519 160.29129845 -321.13037332 159.91543908 C-333.34946297 155.31042162 -343.15765144 148.12373661 -352.43896707 139.02090783 C-353.05256082 138.43180626 -353.66615457 137.8427047 -354.29834207 137.23575158 C-369.05185164 121.83931384 -374.95643414 100.67718243 -374.86450418 79.87662072 C-374.26954294 57.08773943 -364.15297166 38.87756749 -348.43896707 23.02090783 C-347.75834207 22.3273922 -347.07771707 21.63387658 -346.37646707 20.91934533 C-331.70650259 7.07140472 -311.06113817 0.70790986 -291.29673989 0.74243493 C-289.49984974 0.73374632 -289.49984974 0.73374632 -287.66665878 0.72488219 C-284.36244266 0.71087718 -281.05842904 0.70565629 -277.75419803 0.70423359 C-274.18108935 0.70052287 -270.60802651 0.68535647 -267.03494485 0.67161889 C-260.8440668 0.64937584 -254.65320517 0.63434269 -248.46229585 0.62425179 C-239.47656088 0.60959949 -230.49088235 0.58403593 -221.50518062 0.5559205 C-206.87871375 0.51045786 -192.25223863 0.47385913 -177.62573465 0.44278283 C-163.50071923 0.41275405 -149.3757251 0.37843113 -135.25073465 0.33829064 C-134.38405437 0.33582909 -133.5173741 0.33336754 -132.62443079 0.3308314 C-129.13844391 0.32091171 -125.65245713 0.3109578 -122.16647048 0.30095944 C-94.55130237 0.22176876 -66.93612173 0.14814555 -39.32091017 0.08581538 C-37.25157832 0.08110073 -35.18224681 0.07625519 -33.11291536 0.07136673 C-25.5178486 0.05362444 -17.92278758 0.0394892 -10.32770832 0.02839942 C-6.88512064 0.02176733 -3.44257266 0.01162994 0 0 Z " fill="#75A24B" transform="translate(418.4389670677483,356.97909217327833)"/>
<path d="M0 0 C190.41 0 380.82 0 577 0 C577 94.38 577 188.76 577 286 C576.67 286 576.34 286 576 286 C575.79697266 284.17855469 575.79697266 284.17855469 575.58984375 282.3203125 C567.87855367 218.98742436 534.56757943 153.97825159 485 113 C483.96391763 112.09368678 482.93029781 111.18455475 481.8984375 110.2734375 C473.95171703 103.28872986 465.74122069 96.95466753 457 91 C456.33162109 90.54254395 455.66324219 90.08508789 454.97460938 89.61376953 C452.92506004 88.21490889 450.87039243 86.82405333 448.8125 85.4375 C448.17642822 85.00743652 447.54035645 84.57737305 446.88500977 84.13427734 C444.27073919 82.39331828 441.99518444 80.99839481 439 80 C439.70554068 76.33118845 441.27735506 73.29549466 443 70 C443.66 70 444.32 70 445 70 C445.12890625 69.41605469 445.2578125 68.83210938 445.390625 68.23046875 C447.25176586 61.41821598 451.54998478 55.10822367 455 49 C455.66 49 456.32 49 457 49 C457.103125 48.29875 457.20625 47.5975 457.3125 46.875 C458.09359003 43.60862353 459.42058743 40.9528148 461 38 C461.66 38 462.32 38 463 38 C463.3403125 36.515 463.3403125 36.515 463.6875 35 C464.94491376 30.57643649 467.10224085 26.57576049 470 23 C470.66 23 471.32 23 472 23 C472.89299283 19.65127689 473.14811036 16.3864642 473.25 12.9375 C473.27578125 12.10089844 473.3015625 11.26429687 473.328125 10.40234375 C472.9254282 7.45402793 472.03954489 6.13961602 470 4 C469.01 3.67 468.02 3.34 467 3 C467 2.34 467 1.68 467 1 C465.27014758 1.11512153 463.54111249 1.24255677 461.8125 1.375 C460.84957031 1.44460937 459.88664062 1.51421875 458.89453125 1.5859375 C455.87286381 2.01818682 453.6643195 2.49988228 451 4 C449.86381126 6.21906286 449.86381126 6.21906286 449 9 C447.64150377 11.6067652 446.15463047 14.14057837 444.6875 16.6875 C441.2598162 22.700932 437.98827169 28.75316069 435 35 C434.34 35 433.68 35 433 35 C432.62875 36.5778125 432.62875 36.5778125 432.25 38.1875 C431.19132542 41.88550912 429.44925203 44.00646975 427 47 C423.3722647 53.1730012 420.152318 59.574121 417 66 C411.41168967 65.63554498 407.51394119 63.90114421 402.57421875 61.32421875 C395.11789148 57.48856633 387.35689896 55.15806122 379.29003906 53.00048828 C375.21415692 51.90787227 371.17726011 50.7589939 367.1640625 49.453125 C355.74611555 45.76226823 344.63445238 43.65565102 332.71191406 42.34814453 C330.91942777 42.11803241 329.13303947 41.8331782 327.35839844 41.49169922 C315.39804739 39.23932076 303.25113467 39.60456896 291.125 39.625 C289.92025024 39.62554382 288.71550049 39.62608765 287.47424316 39.62664795 C268.65201062 39.66575014 250.51360725 40.42419747 232 44 C230.9059082 44.20367187 229.81181641 44.40734375 228.68457031 44.6171875 C207.38653927 48.69915263 186.15757911 55.34233014 166.65551758 64.86328125 C164 66 164 66 161 66 C160.72027344 65.48953125 160.44054687 64.9790625 160.15234375 64.453125 C157.68229044 59.97367141 155.15360823 55.53564201 152.5625 51.125 C149.81692672 46.43859044 147.18524886 41.70494493 144.60546875 36.92578125 C142.74080287 33.52764319 140.81035092 30.17067985 138.875 26.8125 C131 13.10217506 131 13.10217506 131 10 C130.34 10 129.68 10 129 10 C128.38125 9.05125 127.7625 8.1025 127.125 7.125 C124.99678654 3.99527432 124.36720419 3.28159298 121 2 C116.09602241 1.31424053 112.20996181 1.25920705 107.9375 3.875 C104.89597119 7.21087031 104.5389772 9.78147109 104.58984375 14.30859375 C105.78956702 22.18106362 111.12830835 29.35440229 115.234375 36.04296875 C117.57421628 39.96168523 119.78809736 43.94550531 122 47.9375 C122.4343335 48.72125 122.86866699 49.505 123.31616211 50.3125 C126.13643616 55.41366602 128.91950088 60.53402164 131.6796875 65.66796875 C133.36272975 68.64067947 135.2446673 71.4565167 137.21484375 74.24609375 C138 76 138 76 137.8515625 78.0625 C136.76843667 80.5268597 135.73416336 81.1722996 133.4375 82.5625 C122.0990076 89.72365309 111.20883251 97.28691393 101 106 C99.95019254 106.86576549 98.89936176 107.7302912 97.84765625 108.59375 C84.02223154 120.05501303 70.9080397 132.70596763 60 147 C59.23042969 147.95261719 58.46085937 148.90523437 57.66796875 149.88671875 C47.54221855 162.5957312 35.16773539 178.49679383 30 194 C29.34 194 28.68 194 28 194 C28 195.65 28 197.3 28 199 C27.34 199 26.68 199 26 199 C25.9175 199.825 25.835 200.65 25.75 201.5 C24.83159955 205.78586879 23.0670911 209.16662583 21 213 C18.72380524 217.28975167 17.31113411 221.32908475 16 226 C15.53464844 227.05960938 15.06929687 228.11921875 14.58984375 229.2109375 C5.73892106 249.55088385 3.4485407 273.21137285 1 295 C0.67 295 0.34 295 0 295 C0 197.65 0 100.3 0 0 Z " fill="#F9F9F9" transform="translate(0,0)"/>
<path d="M0 0 C190.08 0 380.16 0 576 0 C576 73.26 576 146.52 576 222 C460.06529648 222.20165675 460.06529648 222.20165675 411.57226562 222.24414062 C401.17996029 222.25330624 390.78765518 222.26267698 380.39535057 222.27262997 C378.98591698 222.2739792 377.57648338 222.27532105 376.16704977 222.27665544 C353.7427733 222.29794681 331.31856033 222.33543338 308.89432216 222.3814861 C285.1700715 222.43011957 261.44586986 222.46000847 237.72156948 222.47044247 C223.52611224 222.47728296 209.33083731 222.49884194 195.13543623 222.53958233 C185.38440807 222.56613197 175.63347335 222.57397346 165.88241173 222.56750689 C160.26717593 222.56432296 154.65225739 222.56899943 149.03707886 222.59602737 C106.46771685 222.79045183 69.06683139 218.78019926 37 188 C36.01050063 187.08584661 35.02091342 186.17178829 34.03125 185.2578125 C18.63164276 170.76535552 9.16223674 151.50034363 2.875 131.5 C2.54242188 130.4584375 2.20984375 129.416875 1.8671875 128.34375 C-8.87378165 86.92812119 0 42.78577717 0 0 Z M399.90501702 27.00841093 C394.14622578 27.01252884 388.38743779 27.01915469 382.62864912 27.0259068 C380.51241331 27.02838614 378.39617743 27.03080649 376.27994156 27.03322792 C349.43536673 27.06433914 322.59084438 27.11622142 295.74632338 27.17792095 C291.3871163 27.18793066 287.02790886 27.19777637 282.66870117 27.20751953 C281.36773184 27.21043159 281.36773184 27.21043159 280.04048031 27.21340248 C265.93933088 27.24454962 251.83819791 27.2614475 237.7370205 27.27319422 C223.18930261 27.2856244 208.64166942 27.3131432 194.09400505 27.35461307 C185.15556716 27.3796284 176.21726972 27.39312614 167.27879631 27.39142957 C161.16069664 27.39139972 155.04274044 27.40610866 148.92469675 27.43216428 C145.40465198 27.44673135 141.88490145 27.45508074 138.36483192 27.44580269 C118.31929494 27.29738784 118.31929494 27.29738784 99 32 C97.90283441 32.39858341 96.80566881 32.79716682 95.67525578 33.20782852 C84.13000386 37.56769018 74.75800126 44.4080272 66 53 C65.15308594 53.81082031 64.30617188 54.62164062 63.43359375 55.45703125 C48.66350073 70.49772139 42.67347551 90.85475325 42.68969727 111.55371094 C43.009919 131.99890619 50.15463711 149.84267732 64 165 C64.5775 165.66902344 65.155 166.33804688 65.75 167.02734375 C78.30807793 180.69507943 97.06234828 189.8346905 115.58326817 191.18888021 C118.33751458 191.26572817 121.08562998 191.28403 123.84094238 191.2784729 C124.88758324 191.2842653 125.9342241 191.2900577 127.01258135 191.29602563 C130.49865377 191.31294372 133.98459305 191.31589577 137.47070312 191.31884766 C139.98262349 191.32815563 142.49454078 191.33832558 145.00645447 191.34928894 C151.12465687 191.37376969 157.24282541 191.38920104 163.36106431 191.40060402 C170.56039948 191.41449908 177.75968423 191.43948911 184.9589861 191.46498732 C197.89402696 191.51048785 210.82907724 191.54704142 223.76416016 191.578125 C236.14015561 191.60788154 248.51612458 191.64215897 260.89208984 191.68261719 C261.64574581 191.68507695 262.39940178 191.68753671 263.17589581 191.69007102 C266.2109358 191.69998982 269.24597569 191.70993829 272.28101546 191.71992405 C304.50730893 191.82590093 336.73361876 191.91027678 368.9600172 191.97683501 C377.02054919 191.99348872 385.08107553 192.01182608 393.14160156 192.03112793 C402.29630622 192.05281709 411.45100403 192.0690061 420.60572815 192.07957077 C423.7213267 192.08328429 426.83690867 192.08914629 429.95249939 192.09703445 C434.05362784 192.10726917 438.15471837 192.10966237 442.25585938 192.11083984 C443.41671051 192.11480648 444.57756165 192.11877312 445.77359009 192.12285995 C446.81683441 192.12174335 447.86007874 192.12062675 448.93493652 192.11947632 C449.82592796 192.12056585 450.7169194 192.12165539 451.63491058 192.12277794 C453.89214542 192.00559901 455.83619657 191.63307757 458 191 C458.33 191.66 458.66 192.32 459 193 C459.66 192.34 460.32 191.68 461 191 C462.66128463 190.64080332 464.32900023 190.31088368 466 190 C466.825 189.67 467.65 189.34 468.5 189 C471 188 471 188 473.3125 187.625 C489.47679347 183.86586198 505.01068577 169.15122778 513.91210938 155.75097656 C526.61503765 135.30541965 530.40485742 113.08066118 524.96484375 89.515625 C518.73942889 66.83192713 504.85124108 49.31807321 484.625 37.25 C466.2318715 27.58524703 447.57774235 26.92501161 427.31993103 26.97479248 C425.31059125 26.97732053 423.30125146 26.97984737 421.29191158 26.98230086 C419.2190324 26.98514375 417.14615647 26.98887312 415.07327914 26.99283504 C410.01719456 27.0022508 404.96110877 27.00510931 399.90501702 27.00841093 Z " fill="#98C353" transform="translate(1,330)"/>
<path d="M0 0 C0 0.66 0 1.32 0 2 C0.99966797 2.185625 0.99966797 2.185625 2.01953125 2.375 C15.31244723 5.34963854 23.39912667 13.93546928 32 24 C32.91652344 24.99580078 32.91652344 24.99580078 33.8515625 26.01171875 C37.26600271 29.75414705 39.15486352 33.21941912 41 38 C41.65804282 39.25456131 42.32518382 40.50438065 43 41.75 C47.22760307 50.19345092 48.60865917 59.01014899 48.625 68.375 C48.62733643 69.40069092 48.62967285 70.42638184 48.63208008 71.4831543 C48.40648919 81.23602561 46.59532752 96.11843831 39.51098633 103.56518555 C39.01236084 104.03867432 38.51373535 104.51216309 38 105 C37.34 105.99 36.68 106.98 36 108 C35.34 108 34.68 108 34 108 C33.938125 108.886875 33.87625 109.77375 33.8125 110.6875 C32.80475197 114.79601121 31.13512823 116.23810132 28 119 C27.443125 119.598125 26.88625 120.19625 26.3125 120.8125 C25 122 25 122 23 122 C23 122.66 23 123.32 23 124 C22.01 124 21.02 124 20 124 C20 124.66 20 125.32 20 126 C19.34 126 18.68 126 18 126 C17.67 126.99 17.34 127.98 17 129 C9.43251674 134.36146415 0.3177169 138 -9 138 C-9 138.66 -9 139.32 -9 140 C-14.06956367 141.68985456 -19.38050515 141.18459842 -24.6875 141.1875 C-25.84701172 141.19974609 -27.00652344 141.21199219 -28.20117188 141.22460938 C-34.49837514 141.23534935 -39.97890836 140.87834302 -46 139 C-46 138.34 -46 137.68 -46 137 C-47.27875 136.855625 -48.5575 136.71125 -49.875 136.5625 C-52.25692894 136.29357254 -53.84452691 136.07773654 -56 135 C-56 134.34 -56 133.68 -56 133 C-56.56589844 132.89042969 -57.13179688 132.78085937 -57.71484375 132.66796875 C-58.44832031 132.50941406 -59.18179688 132.35085938 -59.9375 132.1875 C-61.03384766 131.96126953 -61.03384766 131.96126953 -62.15234375 131.73046875 C-62.76207031 131.48941406 -63.37179687 131.24835938 -64 131 C-64.33 130.01 -64.66 129.02 -65 128 C-65.67675781 127.96390625 -66.35351562 127.9278125 -67.05078125 127.890625 C-71.38379243 126.58211301 -73.95867811 123.83374421 -77.1875 120.75 C-77.81591797 120.17636719 -78.44433594 119.60273438 -79.09179688 119.01171875 C-82.46053492 115.84834762 -84.50364008 113.45071156 -86 109 C-86.96740952 107.96843865 -87.96753778 106.96644801 -89 106 C-98.80784275 92.2874675 -99.78667335 70.21698262 -97.421875 54.046875 C-94.1629141 37.47471212 -83.49672542 25.11367026 -71.578125 13.640625 C-69.92301629 12.01174856 -69.92301629 12.01174856 -68.5859375 9.921875 C-66.67267369 7.60333856 -65.18928545 7.00063483 -62.375 6 C-59.04346485 4.76574096 -55.78889555 3.48821128 -52.5625 2 C-51.81613281 1.67515625 -51.06976563 1.3503125 -50.30078125 1.015625 C-48.75976521 0.33538023 -47.23555343 -0.3841969 -45.73046875 -1.140625 C-31.47931001 -7.51437159 -14.36603438 -4.55161485 0 0 Z " fill="#EFF8FC" transform="translate(456,370)"/>
<path d="M0 0 C190.41 0 380.82 0 577 0 C577 6.93 577 13.86 577 21 C386.92 21 196.84 21 1 21 C-4.60664715 101.13618929 -4.60664715 101.13618929 15 177 C15.74443359 178.45212891 15.74443359 178.45212891 16.50390625 179.93359375 C27.7116578 201.4634707 45.55078661 217.92274666 67 229 C67.89138672 229.50080078 67.89138672 229.50080078 68.80078125 230.01171875 C81.87184426 237.09304411 96.52373362 239.53395202 111 242 C111 242.33 111 242.66 111 243 C74.37 243 37.74 243 0 243 C0 162.81 0 82.62 0 0 Z " fill="#F9FAFA" transform="translate(0,309)"/>
<path d="M0 0 C190.41 0 380.82 0 577 0 C577 0.33 577 0.66 577 1 C428.17 1 279.34 1 126 1 C126 6.94 126 12.88 126 19 C274.83 19 423.66 19 577 19 C577 19.66 577 20.32 577 21 C386.92 21 196.84 21 1 21 C-4.60664715 101.13618929 -4.60664715 101.13618929 15 177 C15.74443359 178.45212891 15.74443359 178.45212891 16.50390625 179.93359375 C27.7116578 201.4634707 45.55078661 217.92274666 67 229 C67.89138672 229.50080078 67.89138672 229.50080078 68.80078125 230.01171875 C81.87184426 237.09304411 96.52373362 239.53395202 111 242 C111 242.33 111 242.66 111 243 C74.37 243 37.74 243 0 243 C0 162.81 0 82.62 0 0 Z " fill="#E4ECD4" transform="translate(0,309)"/>
<path d="M0 0 C0.81275391 -0.00257813 1.62550781 -0.00515625 2.46289062 -0.0078125 C3.72456055 0.00378906 3.72456055 0.00378906 5.01171875 0.015625 C5.84123047 0.00789062 6.67074219 0.00015625 7.52539062 -0.0078125 C18.01702754 0.02531027 24.00025106 3.35093246 31.69921875 10.265625 C32.24191406 10.75160156 32.78460938 11.23757812 33.34375 11.73828125 C40.45487349 19.10720983 40.02800158 30.03653382 40 39.56640625 C39.71029974 43.12934324 38.99032634 45.94783857 37.69921875 49.265625 C37.03921875 49.265625 36.37921875 49.265625 35.69921875 49.265625 C35.47234375 49.9875 35.24546875 50.709375 35.01171875 51.453125 C32.02033314 57.86323701 25.40436924 62.2912505 19.69921875 66.265625 C11.23674853 69.08644841 -1.17529175 68.5239331 -9.1953125 64.58984375 C-15.96458211 60.33236249 -20.57213796 55.31447363 -24.30078125 48.265625 C-24.831875 47.36585938 -25.36296875 46.46609375 -25.91015625 45.5390625 C-27.62069282 41.51257472 -27.7978884 38.27800797 -27.73828125 33.953125 C-27.7321582 33.2005542 -27.72603516 32.4479834 -27.71972656 31.67260742 C-27.5544112 25.79055959 -26.45653879 21.2926914 -23.30078125 16.265625 C-22.78515625 15.255 -22.26953125 14.244375 -21.73828125 13.203125 C-16.65055297 7.07176015 -8.34642279 0.02577477 0 0 Z " fill="#FCFDFB" transform="translate(159.30078125,175.734375)"/>
<path d="M0 0 C7.34762416 6.13468303 12.44425445 12.43716039 14 22 C15.02359943 33.71266236 12.43162554 43.00168739 4.859375 52.0625 C2.17485513 54.85981483 -0.638277 57.07701023 -4 59 C-4.87269531 59.52722656 -5.74539063 60.05445313 -6.64453125 60.59765625 C-14.43732342 63.85448092 -24.60476087 63.24902382 -32.62890625 60.96875 C-41.13346048 57.05861012 -47.38224588 50.90708133 -51.5 42.5 C-54.67748359 33.35226698 -54.37175131 22.45550604 -51 13.4375 C-47.1028504 5.41201396 -41.05224557 -0.27210853 -33 -4 C-22.00033849 -6.34340615 -9.30461946 -7.06888051 0 0 Z " fill="#FCFDFB" transform="translate(432,181)"/>
<path d="M0 0 C0.33 0 0.66 0 1 0 C1.08636719 0.81339844 1.17273438 1.62679688 1.26171875 2.46484375 C3.15510343 17.90721972 7.54791803 31.34339442 15 45 C15.495 45.96550781 15.99 46.93101562 16.5 47.92578125 C27.70837552 69.45926356 45.54749852 85.92104856 67 97 C67.59425781 97.33386719 68.18851562 97.66773438 68.80078125 98.01171875 C81.87184426 105.09304411 96.52373362 107.53395202 111 110 C111 110.33 111 110.66 111 111 C74.37 111 37.74 111 0 111 C0 74.37 0 37.74 0 0 Z " fill="#F8F8F7" transform="translate(0,441)"/>
<path d="M0 0 C0.33 0 0.66 0 1 0 C1 35.31 1 70.62 1 107 C-35.63 107 -72.26 107 -110 107 C-110 106.67 -110 106.34 -110 106 C-108.97003906 105.84144531 -107.94007813 105.68289063 -106.87890625 105.51953125 C-99.12729065 104.27137419 -91.54010234 102.77016846 -84 100.5625 C-83.33170166 100.36954346 -82.66340332 100.17658691 -81.97485352 99.9777832 C-73.4196239 97.38339845 -65.71662974 93.49393613 -58.125 88.8125 C-57.3405249 88.32910156 -56.5560498 87.84570312 -55.74780273 87.34765625 C-49.39488824 83.36685443 -43.54019207 79.06630317 -38 74 C-36.61748047 72.73929688 -36.61748047 72.73929688 -35.20703125 71.453125 C-15.46430546 52.60903362 -3.35055976 26.936737 0 0 Z " fill="#FAFBF9" transform="translate(576,445)"/>
<path d="M0 0 C3.66984961 1.83492481 6.86495862 3.9454988 10.1875 6.3125 C15.29642764 9.89855356 20.44785425 13.13264427 26 16 C26.59425781 16.33386719 27.18851563 16.66773438 27.80078125 17.01171875 C40.87184426 24.09304411 55.52373362 26.53395202 70 29 C70 29.33 70 29.66 70 30 C46.9 30 23.8 30 0 30 C0 20.1 0 10.2 0 0 Z " fill="#FDFDFB" transform="translate(41,522)"/>
<path d="M0 0 C13.86 0 27.72 0 42 0 C42 5.94 42 11.88 42 18 C28.14 18 14.28 18 0 18 C0 12.06 0 6.12 0 0 Z " fill="#FEFEFD" transform="translate(0,310)"/>
<path d="M0 0 C0.63164062 0.06058594 1.26328125 0.12117188 1.9140625 0.18359375 C9.60197142 0.90364286 17.29674563 1.47145554 25 2 C25 2.33 25 2.66 25 3 C23.68128906 3.00257813 22.36257813 3.00515625 21.00390625 3.0078125 C5.74113711 3.25352537 -7.10503293 5.93918679 -20.2890625 13.99609375 C-22 15 -22 15 -24.625 15.8125 C-27.96383326 17.48191663 -29.82262874 20.0205982 -32.18359375 22.87109375 C-33.84238984 24.81527411 -35.56603785 26.51495422 -37.4375 28.25 C-42.14454292 32.8614145 -45.51752145 38.44317553 -49 44 C-49.79664063 45.26457031 -49.79664063 45.26457031 -50.609375 46.5546875 C-59.96137815 62.99950202 -56.26002182 83.3730137 -52.59423828 100.88793945 C-52.06695706 103.05907622 -52.06695706 103.05907622 -50.87060547 105.08666992 C-50 107 -50 107 -51 110 C-56.57369566 98.16966574 -59.11208978 86.01247729 -60 73 C-60.99 73.495 -60.99 73.495 -62 74 C-61.625 71.5625 -61.625 71.5625 -61 69 C-60.01 68.505 -60.01 68.505 -59 68 C-58.34786708 65.97536745 -58.34786708 65.97536745 -58 64 C-58.66 64 -59.32 64 -60 64 C-60.66 60.7 -61.32 57.4 -62 54 C-61.01 53.505 -61.01 53.505 -60 53 C-59.67 53.66 -59.34 54.32 -59 55 C-58.34 55 -57.68 55 -57 55 C-54.92373687 50.37559575 -53.29977048 45.8991349 -52 41 C-51.34 41 -50.68 41 -50 41 C-49.9175 40.29875 -49.835 39.5975 -49.75 38.875 C-48.81369749 35.28584036 -47.29264151 32.89951721 -45 30 C-44.01 30 -43.02 30 -42 30 C-41.67 28.68 -41.34 27.36 -41 26 C-40.34 26 -39.68 26 -39 26 C-38.6596875 25.071875 -38.6596875 25.071875 -38.3125 24.125 C-37 22 -37 22 -34.5 21.0625 C-33.675 20.711875 -32.85 20.36125 -32 20 C-31.71640625 19.21753906 -31.4328125 18.43507813 -31.140625 17.62890625 C-29.71815226 14.35039888 -28.34122868 13.58922681 -25.25 11.875 C-24.34507812 11.37097656 -23.44015625 10.86695313 -22.5078125 10.34765625 C-21.68023437 9.90292969 -20.85265625 9.45820313 -20 9 C-19.05125 8.443125 -18.1025 7.88625 -17.125 7.3125 C-11.48316539 4.94292947 -5.14933368 3 1 3 C0.505 1.515 0.505 1.515 0 0 Z " fill="#68BDD9" transform="translate(415,363)"/>
<path d="M0 0 C0.919102 3.24388943 1.28279255 6.39351063 1.5625 9.75 C1.64628906 10.73484375 1.73007812 11.7196875 1.81640625 12.734375 C1.87699219 13.48203125 1.93757813 14.2296875 2 15 C3.32 12.69 4.64 10.38 6 8 C6.33 8 6.66 8 7 8 C7.44067779 11.08474454 7.68792007 13.01391732 7 16 C5.11393549 18.27002843 3.04427971 20.14138539 0.8515625 22.11328125 C-1.27153345 23.99428233 -1.27153345 23.99428233 -2.0625 27.3125 C-2.12942841 30.10185786 -2.12942841 30.10185786 -1 33 C0.485 32.505 0.485 32.505 2 32 C2.8125 33.625 2.8125 33.625 3 36 C1.33752986 38.00348966 -0.32932867 40.00334402 -2 42 C-2.03874921 43.66621616 -2.0450286 45.33394172 -2 47 C-4.56247649 49.18649236 -7.40175238 50.89966111 -10.25 52.6875 C-14.4128758 55.42857257 -17.70477566 58.58320297 -21.1484375 62.1640625 C-24.3782445 65.36661374 -27.2896334 68 -32 68 C-31.505 67.01 -31.505 67.01 -31 66 C-30.34 66 -29.68 66 -29 66 C-29 65.34 -29 64.68 -29 64 C-28.01 64 -27.02 64 -26 64 C-26 63.34 -26 62.68 -26 62 C-23.51140096 59.3691953 -20.89912012 56.90599829 -18.25 54.4375 C-16.00262638 52.00284524 -15.61865888 51.0932944 -15 48 C-13.5625 46.4375 -13.5625 46.4375 -12 45 C-11.34 44.01 -10.68 43.02 -10 42 C-9.34 42 -8.68 42 -8 42 C-7.7525 40.7625 -7.505 39.525 -7.25 38.25 C-6.45542034 34.55148894 -5.31388951 31.20605209 -3.9375 27.6875 C-1.11083415 19.62626775 -1.26705832 11.2149385 -1.1418457 2.7590332 C-1 1 -1 1 0 0 Z " fill="#44B2D0" transform="translate(505,430)"/>
<path d="M0 0 C0.99 0.33 1.98 0.66 3 1 C2.32904297 1.98226563 2.32904297 1.98226563 1.64453125 2.984375 C-11.77716927 23.24570542 -13.0812433 42.75987114 -8.59912109 66.04443359 C-7.69041429 70.7216439 -7.69041429 70.7216439 -5.87060547 75.08666992 C-5 77 -5 77 -6 80 C-11.57369566 68.16966574 -14.11208978 56.01247729 -15 43 C-15.99 43.495 -15.99 43.495 -17 44 C-16.625 41.5625 -16.625 41.5625 -16 39 C-15.01 38.505 -15.01 38.505 -14 38 C-13.34786708 35.97536745 -13.34786708 35.97536745 -13 34 C-13.66 34 -14.32 34 -15 34 C-15.66 30.7 -16.32 27.4 -17 24 C-16.34 23.67 -15.68 23.34 -15 23 C-14.67 23.66 -14.34 24.32 -14 25 C-13.34 25 -12.68 25 -12 25 C-9.92373687 20.37559575 -8.29977048 15.8991349 -7 11 C-6.34 11 -5.68 11 -5 11 C-4.9175 10.29875 -4.835 9.5975 -4.75 8.875 C-3.82972275 5.34727053 -2.11873023 2.93888386 0 0 Z " fill="#52B3CD" transform="translate(370,393)"/>
<path d="M0 0 C3.96 0 7.92 0 12 0 C12 7.59 12 15.18 12 23 C8.94925705 18.93234273 6.66927895 14.85551118 4.3125 10.375 C3.89677734 9.59898437 3.48105469 8.82296875 3.05273438 8.0234375 C2.66021484 7.2809375 2.26769531 6.5384375 1.86328125 5.7734375 C1.50532471 5.09716309 1.14736816 4.42088867 0.77856445 3.72412109 C0 2 0 2 0 0 Z " fill="#F0F3EF" transform="translate(541,179)"/>
<path d="M0 0 C1.22589844 0.01353516 1.22589844 0.01353516 2.4765625 0.02734375 C3.10304688 0.03894531 3.72953125 0.05054688 4.375 0.0625 C1.72870218 2.23624464 -0.27246955 3.39199391 -3.625 4.0625 C-4.285 4.3925 -4.945 4.7225 -5.625 5.0625 C-5.625 4.4025 -5.625 3.7425 -5.625 3.0625 C-6.39079376 3.30648781 -6.39079376 3.30648781 -7.17205811 3.55540466 C-10.43986541 4.23095668 -13.53425695 4.18170194 -16.87207031 4.17602539 C-17.9555928 4.17624443 -17.9555928 4.17624443 -19.06100464 4.1764679 C-21.44174228 4.17577284 -23.82240108 4.1679995 -26.203125 4.16015625 C-27.85650591 4.15829063 -29.50988738 4.1568674 -31.16326904 4.15586853 C-35.50994397 4.15205473 -39.85658537 4.14223415 -44.20324707 4.13116455 C-48.64070177 4.12092599 -53.07816189 4.11636567 -57.515625 4.11132812 C-66.21876537 4.10061086 -74.92187851 4.08354809 -83.625 4.0625 C-83.295 3.4025 -82.965 2.7425 -82.625 2.0625 C-80.315 2.3925 -78.005 2.7225 -75.625 3.0625 C-75.295 2.4025 -74.965 1.7425 -74.625 1.0625 C-74.07111099 1.22483124 -73.51722198 1.38716248 -72.94654846 1.55441284 C-70.38896453 2.11415802 -68.09819711 2.18957892 -65.48022461 2.19189453 C-64.45493149 2.19504669 -63.42963837 2.19819885 -62.37327576 2.20144653 C-61.26911819 2.1994223 -60.16496063 2.19739807 -59.02734375 2.1953125 C-57.88270157 2.19626923 -56.73805939 2.19722595 -55.55873108 2.19821167 C-53.13363592 2.19889234 -50.70853893 2.19704592 -48.28344727 2.19287109 C-44.6010316 2.18755562 -40.91873982 2.19280211 -37.23632812 2.19921875 C-34.87499973 2.19855728 -32.51367142 2.19727469 -30.15234375 2.1953125 C-28.51736183 2.19834885 -28.51736183 2.19834885 -26.84934998 2.20144653 C-17.78432497 2.17416416 -8.72592218 -0.12465603 0 0 Z " fill="#52AC95" transform="translate(464.625,517.9375)"/>
<path d="M0 0 C1.32 0 2.64 0 4 0 C5 1 6 2 7 3 C10.10007201 4.20049407 10.10007201 4.20049407 13 5 C13 5.66 13 6.32 13 7 C16.3 7.66 19.6 8.32 23 9 C23 9.66 23 10.32 23 11 C30.65874066 12.24063784 38.25711646 12.11179358 46 12.0625 C47.36067544 12.05747487 48.72135267 12.05291376 50.08203125 12.04882812 C53.38806725 12.03710459 56.69401001 12.02069427 60 12 C60 11.34 60 10.68 60 10 C61.27875 9.7525 62.5575 9.505 63.875 9.25 C68.38838322 8.25890953 72.49507421 6.71305207 76.73828125 4.90234375 C78.81638777 4.07325462 80.81911694 3.48408617 83 3 C75.88669941 11.33201293 62.64653013 13.66850828 52.28271484 14.53735352 C35.21927435 15.76014726 17.04810673 13.66723457 3 3 C1.97753676 2.02297957 0.96906193 1.03000922 0 0 Z " fill="#59BBD6" transform="translate(387,498)"/>
<path d="M0 0 C11.52164009 -0.3690205 11.52164009 -0.3690205 17 2 C17 2.66 17 3.32 17 4 C17.7425 4.144375 18.485 4.28875 19.25 4.4375 C21.52027739 4.90187492 23.75759479 5.41863569 26 6 C26 6.66 26 7.32 26 8 C26.73089844 8.25910156 27.46179688 8.51820313 28.21484375 8.78515625 C31.08317586 10.03628008 33.13613681 11.47531064 35.5625 13.4375 C36.67818359 14.33275391 36.67818359 14.33275391 37.81640625 15.24609375 C38.53699219 15.82488281 39.25757813 16.40367187 40 17 C40.75152344 17.52722656 41.50304687 18.05445313 42.27734375 18.59765625 C42.84582031 19.06042969 43.41429687 19.52320313 44 20 C44 20.66 44 21.32 44 22 C44.66 22 45.32 22 46 22 C46 22.66 46 23.32 46 24 C46.5775 24.185625 47.155 24.37125 47.75 24.5625 C51.16717779 26.74569692 52.24528583 29.36059284 54 33 C53.505 33.99 53.505 33.99 53 35 C52.67 34.01 52.34 33.02 52 32 C51.41089844 31.71898437 50.82179688 31.43796875 50.21484375 31.1484375 C47.15497965 29.5618413 45.66204413 27.33948859 43.5625 24.625 C40.63954697 20.85311974 37.8214682 17.86145593 34 15 C33.46117187 14.5565625 32.92234375 14.113125 32.3671875 13.65625 C27.39598826 9.80422127 21.94251799 7.92352752 16 6 C16 5.34 16 4.68 16 4 C14.845 3.87625 13.69 3.7525 12.5 3.625 C8.21649625 3.09721115 4.16647328 2.11601963 0 1 C0 0.67 0 0.34 0 0 Z " fill="#69BFDF" transform="translate(440,366)"/>
<path d="M0 0 C0.495 0.99 0.495 0.99 1 2 C-2.91593446 1.21681311 -6.36406635 -0.39179858 -10 -2 C-10 0.31 -10 2.62 -10 5 C-10.495 4.01 -10.495 4.01 -11 3 C-11.66 3 -12.32 3 -13 3 C-13.763125 2.01 -14.52625 1.02 -15.3125 0 C-17.40410509 -2.71006864 -17.40410509 -2.71006864 -20.8125 -3.375 C-21.534375 -3.25125 -22.25625 -3.1275 -23 -3 C-23 -3.99 -23 -4.98 -23 -6 C-24.65 -5.67 -26.3 -5.34 -28 -5 C-28 -5.99 -28 -6.98 -28 -8 C-28.98097656 -7.82597656 -29.96195312 -7.65195312 -30.97265625 -7.47265625 C-35.18861129 -6.87037696 -39.20682745 -7.1007493 -43.4375 -7.4375 C-44.16904297 -7.48970703 -44.90058594 -7.54191406 -45.65429688 -7.59570312 C-47.43668622 -7.72384876 -49.2184257 -7.8609816 -51 -8 C-51 -8.33 -51 -8.66 -51 -9 C-34.5729552 -12.0800709 -14.4023163 -8.51968006 0 0 Z " fill="#43A39B" transform="translate(485,367)"/>
<path d="M0 0 C0.33 0.66 0.66 1.32 1 2 C-6.10951491 13.48930204 -14.58110239 25.77690405 -27 32 C-27.66 32 -28.32 32 -29 32 C-29 31.34 -29 30.68 -29 30 C-28.071875 29.87625 -28.071875 29.87625 -27.125 29.75 C-24.81562433 29.18741541 -24.81562433 29.18741541 -23.75 26.9375 C-23.5025 26.298125 -23.255 25.65875 -23 25 C-22.01 25 -21.02 25 -20 25 C-19.78472656 24.45472656 -19.56945312 23.90945313 -19.34765625 23.34765625 C-17.54063651 20.19977548 -15.04644901 17.91282806 -12.4375 15.4375 C-8.44008718 11.77423728 -8.44008718 11.77423728 -6 7 C-5.34 7 -4.68 7 -4 7 C-3.71125 6.401875 -3.4225 5.80375 -3.125 5.1875 C-2 3 -2 3 0 0 Z " fill="#58A677" transform="translate(518,477)"/>
<path d="M0 0 C0.03963867 0.55236328 0.07927734 1.10472656 0.12011719 1.67382812 C1.03531108 13.87978422 2.72584765 25.20738202 6 37 C6.35159915 38.66290918 6.69288895 40.32830275 7 42 C-1.25406191 31.63552453 -1.54398564 17.67638312 -3 5 C-3.99 5.495 -3.99 5.495 -5 6 C-4.625 3.5625 -4.625 3.5625 -4 1 C-2 0 -2 0 0 0 Z " fill="#8DCBE3" transform="translate(358,431)"/>
<path d="M0 0 C0.919102 3.24388943 1.28279255 6.39351063 1.5625 9.75 C1.64628906 10.73484375 1.73007812 11.7196875 1.81640625 12.734375 C1.87699219 13.48203125 1.93757813 14.2296875 2 15 C3.32 12.69 4.64 10.38 6 8 C6.33 8 6.66 8 7 8 C7.44214068 11.09498477 7.68802791 13.00505499 7 16 C4.6508971 19.04971254 1.94308035 21.5299147 -1 24 C-1.98504144 21.04487568 -2.06660444 19.41983516 -1.9140625 16.3671875 C-1.87023437 15.47902344 -1.82640625 14.59085937 -1.78125 13.67578125 C-1.7296875 12.75152344 -1.678125 11.82726562 -1.625 10.875 C-1.58117187 9.94300781 -1.53734375 9.01101563 -1.4921875 8.05078125 C-1.12950029 1.12950029 -1.12950029 1.12950029 0 0 Z " fill="#2EABCC" transform="translate(505,430)"/>
<path d="M0 0 C0.66 0.33 1.32 0.66 2 1 C1.154375 1.79921875 0.30875 2.5984375 -0.5625 3.421875 C-7.84331933 10.42782488 -13.7976214 17.27697849 -19 26 C-19.33 25.34 -19.66 24.68 -20 24 C-18.63671875 21.57421875 -18.63671875 21.57421875 -16.6875 18.6875 C-14.34061084 15.19810902 -12.42264048 11.96461738 -11 8 C-10.34 8 -9.68 8 -9 8 C-8.7215625 7.13375 -8.7215625 7.13375 -8.4375 6.25 C-6.25430308 2.83282221 -3.63940716 1.75471417 0 0 Z " fill="#BBDEEF" transform="translate(385,381)"/>
<path d="M0 0 C-0.556875 0.24234375 -1.11375 0.4846875 -1.6875 0.734375 C-10.33898814 4.53401506 -18.22206823 8.59865849 -26 14 C-24.67017409 9.6411262 -23.20963466 8.0707974 -19.25 5.875 C-18.35410156 5.37355469 -17.45820313 4.87210937 -16.53515625 4.35546875 C-15.69855469 3.90816406 -14.86195313 3.46085937 -14 3 C-12.906875 2.401875 -11.81375 1.80375 -10.6875 1.1875 C-6.68384798 -0.58155554 -4.20491608 -1.40163869 0 0 Z " fill="#3AA7C5" transform="translate(409,369)"/>
<path d="M0 0 C0.33 0 0.66 0 1 0 C1.77662337 4.40086574 1.91311636 7.6626973 1 12 C1.37722015 14.72502965 1.37722015 14.72502965 2 17 C1.01 17.33 0.02 17.66 -1 18 C-1.52955234 16.21089097 -2.0483937 14.41860852 -2.5625 12.625 C-2.85253906 11.62726563 -3.14257812 10.62953125 -3.44140625 9.6015625 C-4 7 -4 7 -3 5 C-2.34 5.33 -1.68 5.66 -1 6 C-0.67 4.02 -0.34 2.04 0 0 Z " fill="#34AFD0" transform="translate(504,409)"/>
<path d="M0 0 C0.639375 0.33 1.27875 0.66 1.9375 1 C3.76794567 2.07271225 3.76794567 2.07271225 5 2 C4.67 6.29 4.34 10.58 4 15 C3.67 13.68 3.34 12.36 3 11 C2.34 11 1.68 11 1 11 C0.63890458 9.35567294 0.28629924 7.7094792 -0.0625 6.0625 C-0.25972656 5.14597656 -0.45695312 4.22945313 -0.66015625 3.28515625 C-0.77230469 2.53105469 -0.88445312 1.77695312 -1 1 C-0.67 0.67 -0.34 0.34 0 0 Z " fill="#42ADC1" transform="translate(354,416)"/>
<path d="M0 0 C11.52164009 -0.3690205 11.52164009 -0.3690205 17 2 C17 2.66 17 3.32 17 4 C17.7425 4.144375 18.485 4.28875 19.25 4.4375 C21.52027739 4.90187492 23.75759479 5.41863569 26 6 C25.67 6.66 25.34 7.32 25 8 C24.42032471 7.823479 23.84064941 7.64695801 23.2434082 7.46508789 C20.60050726 6.66178337 17.95652082 5.86211045 15.3125 5.0625 C14.40048828 4.78470703 13.48847656 4.50691406 12.54882812 4.22070312 C11.21948242 3.81948242 11.21948242 3.81948242 9.86328125 3.41015625 C9.05157471 3.16402588 8.23986816 2.91789551 7.40356445 2.66430664 C4.95103105 1.98646577 2.50013823 1.46889752 0 1 C0 0.67 0 0.34 0 0 Z " fill="#39ACD1" transform="translate(440,366)"/>
<path d="M0 0 C0.66 0 1.32 0 2 0 C2 6.93 2 13.86 2 21 C1.67 21 1.34 21 1 21 C0.66254646 18.60468244 0.3299171 16.20885732 0 13.8125 C-0.09539063 13.13896484 -0.19078125 12.46542969 -0.2890625 11.77148438 C-0.78207505 8.16192821 -1.21960561 4.64408059 -1 1 C-0.67 0.67 -0.34 0.34 0 0 Z " fill="#EEF2E8" transform="translate(575,265)"/>
<path d="M0 0 C0.99 0.33 1.98 0.66 3 1 C-2.24200875 5.21639834 -7.30257419 7.85253894 -14 9 C-14.99 8.67 -15.98 8.34 -17 8 C-16.02417969 7.59007812 -15.04835938 7.18015625 -14.04296875 6.7578125 C-12.75774425 6.21370286 -11.47259175 5.66942311 -10.1875 5.125 C-9.22360352 4.72087891 -9.22360352 4.72087891 -8.24023438 4.30859375 C-5.28509592 3.05304269 -2.68084233 1.78722822 0 0 Z " fill="#5FAF8A" transform="translate(486,509)"/>
<path d="M0 0 C0.33 0.66 0.66 1.32 1 2 C-0.24120382 3.94314676 -1.49332158 5.87932499 -2.75 7.8125 C-3.44609375 8.89144531 -4.1421875 9.97039062 -4.859375 11.08203125 C-6.76585014 13.68082126 -8.31641095 15.27742595 -11 17 C-10.39717492 13.62417953 -9.12674568 11.65843209 -7 9 C-6.67 8.34 -6.34 7.68 -6 7 C-5.34 7 -4.68 7 -4 7 C-3.71125 6.401875 -3.4225 5.80375 -3.125 5.1875 C-2 3 -2 3 0 0 Z " fill="#64AB75" transform="translate(518,477)"/>
<path d="M0 0 C0.33 0 0.66 0 1 0 C1.7230444 7.10993658 1.7230444 7.10993658 -0.3359375 9.64453125 C-2 11 -2 11 -5 13 C-5 8.85323868 -4.5223055 7.68791935 -2.5 4.25 C-2.0359375 3.45078125 -1.571875 2.6515625 -1.09375 1.828125 C-0.7328125 1.22484375 -0.371875 0.6215625 0 0 Z " fill="#33A4B6" transform="translate(511,438)"/>
<path d="M0 0 C0.66 0.33 1.32 0.66 2 1 C-2.29 5.29 -6.58 9.58 -11 14 C-11.33 13.34 -11.66 12.68 -12 12 C-8.27653164 7.57905197 -4.70478962 3.42166518 0 0 Z " fill="#EAF4DA" transform="translate(395,179)"/>
<path d="M0 0 C0.99 0.33 1.98 0.66 3 1 C-4.69785868 5.39301883 -11.0754426 7.96486395 -20 8 C-15.58228898 5.56863079 -10.81457622 4.40014928 -5.99609375 3 C-2.86800179 2.10175792 -2.86800179 2.10175792 0 0 Z " fill="#77C7E2" transform="translate(467,501)"/>
<path d="M0 0 C0.66 0.33 1.32 0.66 2 1 C-2.26041226 4.76354036 -6.51848911 8.49881962 -11 12 C-11.66 11.67 -12.32 11.34 -13 11 C-12.67 10.34 -12.34 9.68 -12 9 C-11.34 9 -10.68 9 -10 9 C-10 8.34 -10 7.68 -10 7 C-9.01 7 -8.02 7 -7 7 C-7 6.34 -7 5.68 -7 5 C-5.46875 3.7109375 -5.46875 3.7109375 -3.5 2.375 C-2.8503125 1.92898438 -2.200625 1.48296875 -1.53125 1.0234375 C-0.77328125 0.51683594 -0.77328125 0.51683594 0 0 Z " fill="#4AB4D5" transform="translate(486,487)"/>
<path d="M0 0 C1 3 1 3 0.3125 5.125 C-1 7 -1 7 -3.125 7.75 C-4.053125 7.87375 -4.053125 7.87375 -5 8 C-3.375 2.25 -3.375 2.25 0 0 Z " fill="#35A6B5" transform="translate(502,472)"/>
<path d="M0 0 C0.66 0.33 1.32 0.66 2 1 C-0.97 3.97 -3.94 6.94 -7 10 C-7.33 9.01 -7.66 8.02 -8 7 C-7.01 6.67 -6.02 6.34 -5 6 C-4.3162955 4.67532254 -3.65035814 3.34136367 -3 2 C-2.01 1.34 -1.02 0.68 0 0 Z " fill="#5BB6D0" transform="translate(381,383)"/>
<path d="M0 0 C0.66 0 1.32 0 2 0 C2.33 1.32 2.66 2.64 3 4 C1.35 5.32 -0.3 6.64 -2 8 C-2.125 5.125 -2.125 5.125 -2 2 C-1.34 1.34 -0.68 0.68 0 0 Z " fill="#37A5B6" transform="translate(505,462)"/>
<path d="M0 0 C0 4.95 0 9.9 0 15 C-0.33 15 -0.66 15 -1 15 C-1.33 11.7 -1.66 8.4 -2 5 C-2.99 5.495 -2.99 5.495 -4 6 C-3.625 3.5625 -3.625 3.5625 -3 1 C-1 0 -1 0 0 0 Z " fill="#3FACC6" transform="translate(357,431)"/>
<path d="M0 0 C0.33 0 0.66 0 1 0 C2.125 6.625 2.125 6.625 1 10 C0.01 10 -0.98 10 -2 10 C-1.54177532 6.53058454 -1.10868317 3.32604951 0 0 Z " fill="#2EA8C0" transform="translate(504,409)"/>
<path d="M0 0 C0.66 0.33 1.32 0.66 2 1 C-1.3 4.3 -4.6 7.6 -8 11 C-8 8 -8 8 -5.6875 5.5 C-4.800625 4.675 -3.91375 3.85 -3 3 C-2.401875 2.401875 -1.80375 1.80375 -1.1875 1.1875 C-0.795625 0.795625 -0.40375 0.40375 0 0 Z " fill="#E7F1D6" transform="translate(146,181)"/>
<path d="M0 0 C2.60045875 2.3024119 3.84739183 4.49896677 5.1875 7.6875 C5.53167969 8.49574219 5.87585938 9.30398438 6.23046875 10.13671875 C6.48441406 10.75160156 6.73835938 11.36648438 7 12 C6.34 12 5.68 12 5 12 C3.7109375 10.390625 3.7109375 10.390625 2.375 8.25 C1.92898438 7.55390625 1.48296875 6.8578125 1.0234375 6.140625 C0 4 0 4 0 0 Z " fill="#68C1E0" transform="translate(494,401)"/>
<path d="M0 0 C3.96 0 7.92 0 12 0 C11.67 1.32 11.34 2.64 11 4 C10.484375 3.690625 9.96875 3.38125 9.4375 3.0625 C6.33334577 1.70940713 3.34884993 1.38640576 0 1 C0 0.67 0 0.34 0 0 Z " fill="#E5ECD4" transform="translate(114,0)"/>
<path d="M0 0 C3.63 0 7.26 0 11 0 C11.33 0.99 11.66 1.98 12 3 C7.97007218 2.44687265 3.97977076 1.8441938 0 1 C0 0.67 0 0.34 0 0 Z " fill="#4EB8D8" transform="translate(440,366)"/>
<path d="M0 0 C1.6286551 0.42369072 3.25287378 0.8644623 4.875 1.3125 C5.77992188 1.55613281 6.68484375 1.79976563 7.6171875 2.05078125 C10 3 10 3 12 6 C8.98782888 5.35550393 6.48344164 4.34977818 3.75 2.9375 C3.04359375 2.57527344 2.3371875 2.21304687 1.609375 1.83984375 C1.07828125 1.56269531 0.5471875 1.28554688 0 1 C0 0.67 0 0.34 0 0 Z " fill="#5EB190" transform="translate(474,363)"/>
<path d="M0 0 C1.9375 0.6875 1.9375 0.6875 4 2 C4.75 4.625 4.75 4.625 5 7 C4.01 7 3.02 7 2 7 C2 5.68 2 4.36 2 3 C1.34 3 0.68 3 0 3 C0 2.01 0 1.02 0 0 Z " fill="#61BDD8" transform="translate(368,478)"/>
</svg>
